<svg width="28" height="28" viewBox="0 0 28 28" fill="none" xmlns="http://www.w3.org/2000/svg">
<path fill-rule="evenodd" clip-rule="evenodd" d="M2.51278 2.18521C2.31453 2.18521 2.15381 2.34827 2.15381 2.54941V4.8596C2.15381 4.95621 2.19164 5.04883 2.25893 5.1171L11.4689 14.4613C11.4689 14.4613 11.4689 14.4613 11.4689 14.4613C11.9402 14.9394 12.2049 15.588 12.2049 16.2641V24.7208C12.2049 24.888 12.3171 25.0337 12.4769 25.0742L15.3486 25.8027C15.575 25.8601 15.7946 25.6863 15.7946 25.4492V16.2641C15.7946 15.5879 16.0595 14.9394 16.5306 14.4614L25.7411 5.11719C25.8085 5.04881 25.8462 4.9562 25.8462 4.85987L25.8459 2.54922C25.8459 2.34829 25.6853 2.18521 25.4869 2.18521H2.51278ZM0 2.54941C0 1.14142 1.125 0 2.51278 0H25.4869C26.8745 0 27.9996 1.14109 27.9997 2.54909M27.9997 2.54922L28 4.85904C28 4.85913 28 4.85923 28 4.85932C28.0002 5.53581 27.7352 6.18438 27.264 6.66245L18.0536 16.0066C18.0536 16.0066 18.0536 16.0066 18.0536 16.0066C17.9863 16.0748 17.9484 16.1676 17.9484 16.2641V25.4492C17.9484 27.1077 16.4123 28.3249 14.8263 27.9226C14.8263 27.9226 14.8263 27.9226 14.8263 27.9226L11.9545 27.1942C10.8358 26.9105 10.0511 25.8907 10.0511 24.7208V16.2641C10.0511 16.1675 10.0133 16.0748 9.94606 16.0066L0.735993 6.66232C0.735986 6.66231 0.736 6.66232 0.735993 6.66232C0.264725 6.18419 0 5.5357 0 4.8596V2.54941" fill="white"/>
</svg>
