<svg width="24" height="25" viewBox="0 0 24 25" fill="none" xmlns="http://www.w3.org/2000/svg">
<path d="M0.857143 12.6581H1.71429H0.857143ZM0.857143 21.5116H0H0.857143ZM21.4286 23.2259V22.3688V23.2259ZM2.57143 23.2259V24.083V23.2259ZM23.1429 12.6582H22.2857H23.1429ZM23.1429 21.5116H24H23.1429ZM22.2357 10.3349L21.6054 10.9158L22.2357 10.3349ZM14.5215 1.96248L13.8911 2.54329L14.5215 1.96248ZM9.47854 1.96247L10.1089 2.54329L9.47854 1.96247ZM1.76427 10.3349L1.13391 9.7541L1.76427 10.3349ZM8.57143 14.6545H9.42857H8.57143ZM8.57143 22.3688H7.71429H8.57143ZM14.5714 23.2259V22.3688V23.2259ZM9.42857 23.2259V24.083V23.2259ZM15.4286 14.6545H16.2857H15.4286ZM15.4286 22.3688H14.5714H15.4286ZM14.5714 13.7973V14.6545V13.7973ZM9.42857 13.7973V14.6545V13.7973ZM0 12.6581V21.5116H1.71429V12.6581H0ZM21.4286 22.3688H2.57143V24.083H21.4286V22.3688ZM22.2857 12.6582V21.5116H24V12.6582H22.2857ZM22.8661 9.7541L15.1518 1.38167L13.8911 2.54329L21.6054 10.9158L22.8661 9.7541ZM8.8482 1.38166L1.13391 9.7541L2.39463 10.9157L10.1089 2.54329L8.8482 1.38166ZM15.1518 1.38167C13.4544 -0.460551 10.5456 -0.46056 8.8482 1.38166L10.1089 2.54329C11.1273 1.43795 12.8727 1.43795 13.8911 2.54329L15.1518 1.38167ZM24 12.6582C24 11.5821 23.5953 10.5455 22.8661 9.7541L21.6054 10.9158C22.0429 11.3906 22.2857 12.0126 22.2857 12.6582H24ZM1.71429 12.6581C1.71429 12.0125 1.95715 11.3905 2.39463 10.9157L1.13391 9.7541C0.404777 10.5454 0 11.5821 0 12.6581H1.71429ZM0 21.5116C0 22.9318 1.15126 24.083 2.57143 24.083V22.3688C2.09804 22.3688 1.71429 21.985 1.71429 21.5116H0ZM21.4286 24.083C22.8488 24.083 24 22.9318 24 21.5116H22.2857C22.2857 21.985 21.902 22.3688 21.4286 22.3688V24.083ZM7.71429 14.6545V22.3688H9.42857V14.6545H7.71429ZM14.5714 22.3688H9.42857V24.083H14.5714V22.3688ZM14.5714 14.6545V22.3688H16.2857V14.6545H14.5714ZM14.5714 12.9402H9.42857V14.6545H14.5714V12.9402ZM16.2857 14.6545C16.2857 13.7078 15.5182 12.9402 14.5714 12.9402V14.6545H16.2857ZM9.42857 14.6545V12.9402C8.48177 12.9402 7.71429 13.7078 7.71429 14.6545H9.42857ZM7.71429 22.3688C7.71429 23.3156 8.48177 24.083 9.42857 24.083V22.3688H7.71429ZM14.5714 24.083C15.5182 24.083 16.2857 23.3156 16.2857 22.3688H14.5714V24.083Z" fill="#9491AE"/>
</svg>
