<svg width="34" height="30" viewBox="0 0 34 30" fill="none" xmlns="http://www.w3.org/2000/svg">
<path fill-rule="evenodd" clip-rule="evenodd" d="M17 10.425C14.4687 10.425 12.425 12.4687 12.425 15C12.425 17.5313 14.4687 19.575 17 19.575C19.5313 19.575 21.575 17.5313 21.575 15C21.575 12.4687 19.5313 10.425 17 10.425ZM10 15C10 11.1294 13.1294 8 17 8C20.8705 8 24 11.1294 24 15C24 18.8705 20.8705 22 17 22C13.1294 22 10 18.8705 10 15Z" fill="#B9B2C4"/>
<path fill-rule="evenodd" clip-rule="evenodd" d="M1.27882 10.0171C5.13696 3.77052 10.7906 0 17 0C23.2092 0 28.8627 3.77028 32.7208 10.0165C32.7211 10.017 32.7214 10.0174 32.7217 10.0179L31.701 10.6867L32.7207 10.0163C32.7207 10.0164 32.7208 10.0164 32.7208 10.0165C33.6008 11.4367 34 13.2562 34 15C34 16.7436 33.6009 18.5628 32.7212 19.9829C32.7213 19.9826 32.7215 19.9824 32.7217 19.9821L31.7008 19.3132L32.7207 19.9837C32.7208 19.9834 32.721 19.9832 32.7212 19.9829C28.863 26.2295 23.2094 30 17 30C10.7905 30 5.13682 26.2294 1.27867 19.9827C1.27889 19.983 1.27911 19.9834 1.27933 19.9837L2.29945 19.3131L1.27832 19.9821C1.27843 19.9823 1.27855 19.9825 1.27867 19.9827C0.399011 18.5626 0 16.7435 0 15C0 13.2564 0.399058 11.4372 1.27882 10.0171ZM1.27882 10.0171C1.27865 10.0174 1.27848 10.0176 1.27832 10.0179L2.29925 10.6868L1.27932 10.0163C1.27915 10.0166 1.27899 10.0168 1.27882 10.0171ZM17 2.49307C11.8171 2.49307 6.85307 5.63634 3.32063 11.356L3.31963 11.3576C2.74744 12.281 2.4205 13.6026 2.4205 15C2.4205 16.3974 2.74744 17.7191 3.31962 18.6424L3.32063 18.644C6.85307 24.3637 11.8171 27.5069 17 27.5069C22.1829 27.5069 27.1469 24.3637 30.6794 18.644L30.6804 18.6424C31.2526 17.7191 31.5795 16.3974 31.5795 15C31.5795 13.6026 31.2526 12.281 30.6804 11.3576L30.6794 11.356C27.1469 5.63634 22.1829 2.49307 17 2.49307Z" fill="#B9B2C4"/>
</svg>
