<svg width="24" height="25" viewBox="0 0 24 25" fill="none" xmlns="http://www.w3.org/2000/svg">
<path d="M11.5554 11.6667C14.5009 11.6667 16.8888 9.27885 16.8888 6.33333C16.8888 3.38781 14.5009 1 11.5554 1C8.60991 1 6.22209 3.38781 6.22209 6.33333C6.22209 9.27885 8.60991 11.6667 11.5554 11.6667Z" stroke="#9491AE" stroke-width="2"/>
<path d="M22.2135 19.9224L21.3278 19.9985L22.2135 19.9224ZM0.897408 19.9224L1.78304 19.9984L0.897408 19.9224ZM21.2943 21.8715L21.7633 22.6265L21.2943 21.8715ZM1.81656 21.8715L2.28561 21.1163L1.81656 21.8715ZM21.1433 16.4633L21.9397 16.0685L21.1433 16.4633ZM20.8252 21.1163C19.5575 21.9039 16.6767 23.2224 11.5554 23.2224V25.0002C17.0003 25.0002 20.2071 23.5931 21.7633 22.6265L20.8252 21.1163ZM11.5554 23.2224C6.43408 23.2224 3.55341 21.9039 2.28561 21.1163L1.34751 22.6265C2.90365 23.5931 6.11056 25.0002 11.5554 25.0002V23.2224ZM0.0117724 19.8464C-0.079961 20.9152 0.364332 22.0157 1.34751 22.6265L2.28561 21.1163C1.94739 20.9062 1.74039 20.4954 1.78304 19.9984L0.0117724 19.8464ZM21.3278 19.9985C21.3704 20.4954 21.1634 20.9062 20.8252 21.1163L21.7633 22.6265C22.7465 22.0157 23.1908 20.9152 23.0991 19.8464L21.3278 19.9985ZM20.3469 16.858C20.7735 17.7188 21.2319 18.8806 21.3278 19.9985L23.0991 19.8464C22.9751 18.4028 22.4049 17.0069 21.9397 16.0685L20.3469 16.858ZM1.78304 19.9984C1.87898 18.8806 2.33727 17.7188 2.76396 16.858L1.17113 16.0685C0.705932 17.0069 0.135675 18.4028 0.0117724 19.8464L1.78304 19.9984ZM19.0184 14.3335H4.09236V16.1113H19.0184V14.3335ZM2.76396 16.858C2.98643 16.4092 3.48375 16.1113 4.09236 16.1113V14.3335C2.91921 14.3335 1.73999 14.9209 1.17113 16.0685L2.76396 16.858ZM21.9397 16.0685C21.3709 14.9209 20.1916 14.3335 19.0184 14.3335V16.1113C19.6271 16.1113 20.1244 16.4092 20.3469 16.858L21.9397 16.0685Z" fill="#9491AE"/>
</svg>
